# xmcd
#
# Track frame offsets: 
#        150
#        14660
#        30854
#        45679
#        62424
#        76596
#        86649
#        105882
#        120698
#        139236
#        151658
#
# Disc length: 2242 seconds
#
# Revision: 0
# Processed by: cddbd v1.5.2PL0 Copyright (c) Steve Scherf et al.
# Submitted via: ExactAudioCopy v0.90b4
#
DISCID=7408c00b
DTITLE=Frances England - Paths We Have Work
DYEAR=2013
DGENRE=Folk
TTITLE0=Fall Out of the Sky
TTITLE1=One You Wanna Know
TTITLE2=All That We Got
TTITLE3=Paths We Have Worn
TTITLE4=Come Back to Me
TTITLE5=Good Friends
TTITLE6=On Our Way
TTITLE7=Sweet Bye and Bye
TTITLE8=Light Brings Color
TTITLE9=Since It's Been You and Me
TTITLE10=Chemical Wonder
EXTD=
EXTT0=
EXTT1=
EXTT2=
EXTT3=
EXTT4=
EXTT5=
EXTT6=
EXTT7=
EXTT8=
EXTT9=
EXTT10=
PLAYORDER=
